<svg width="800" height="238" viewBox="0 0 800 238" fill="none" xmlns="http://www.w3.org/2000/svg">
<g clip-path="url(#clip0_40934_50533)">
<path d="M794.905 209.562C794.905 212.546 794.316 215.501 793.173 218.257C792.03 221.014 790.355 223.518 788.243 225.627C786.131 227.736 783.625 229.409 780.866 230.548C778.107 231.688 775.151 232.273 772.166 232.27H28.0463C22.0152 232.276 16.2285 229.888 11.9588 225.629C7.68917 221.371 5.28618 215.591 5.27832 209.562V28.468C5.28618 22.4357 7.68822 16.6531 11.957 12.3899C16.2258 8.12668 22.0125 5.7313 28.0463 5.72974H772.16C775.147 5.72974 778.104 6.31792 780.863 7.4607C783.622 8.60347 786.129 10.2785 788.241 12.39C790.352 14.5015 792.027 17.0082 793.169 19.7669C794.312 22.5256 794.899 25.4822 794.899 28.468L794.905 209.562Z" fill="white" style="fill:white;fill-opacity:1;"/>
<path d="M772.166 237.553H28.0463C20.6167 237.552 13.4911 234.603 8.23306 229.356C2.97506 224.108 0.0141366 216.989 0 209.562L0 28.474C0.0109911 21.0426 2.96996 13.919 8.22779 8.66592C13.4856 3.41282 20.613 0.459153 28.0463 0.452881L772.16 0.452881C779.593 0.462283 786.718 3.41695 791.975 8.66938C797.233 13.9218 800.192 21.0436 800.207 28.474V209.562C800.218 225.001 787.616 237.553 772.166 237.553Z" fill="#A6A6A6" style="fill:#A6A6A6;fill:color(display-p3 0.6511 0.6511 0.6511);fill-opacity:1;"/>
<path d="M794.905 209.562C794.905 212.546 794.316 215.501 793.173 218.257C792.03 221.014 790.355 223.518 788.243 225.627C786.131 227.736 783.625 229.409 780.866 230.548C778.107 231.688 775.151 232.273 772.166 232.27H28.0463C22.0152 232.276 16.2285 229.888 11.9588 225.629C7.68917 221.371 5.28618 215.591 5.27832 209.562V28.468C5.28618 22.4357 7.68822 16.6531 11.957 12.3899C16.2258 8.12668 22.0125 5.7313 28.0463 5.72974H772.16C775.147 5.72974 778.104 6.31792 780.863 7.4607C783.622 8.60347 786.129 10.2785 788.241 12.39C790.352 14.5015 792.027 17.0082 793.169 19.7669C794.312 22.5256 794.899 25.4822 794.899 28.468L794.905 209.562Z" fill="black" style="fill:black;fill-opacity:1;"/>
<path d="M178.681 117.755C178.509 98.6454 194.332 89.3486 195.055 88.9157C186.094 75.8538 172.204 74.0692 167.323 73.9269C155.658 72.6995 144.342 80.9055 138.399 80.9055C132.338 80.9055 123.187 74.0455 113.324 74.247C100.632 74.4427 88.7592 81.7889 82.2472 93.1966C68.8083 116.457 78.8312 150.638 91.7067 169.439C98.1475 178.653 105.674 188.928 115.524 188.567C125.162 188.175 128.762 182.43 140.392 182.43C151.915 182.43 155.296 188.567 165.342 188.335C175.686 188.175 182.197 179.086 188.413 169.795C195.856 159.247 198.845 148.847 198.964 148.314C198.726 148.231 178.882 140.653 178.681 117.755ZM159.702 61.5587C164.886 55.0781 168.432 46.2615 167.448 37.3145C159.945 37.6465 150.563 42.5024 145.16 48.8407C140.38 54.4259 136.11 63.5805 137.213 72.1896C145.641 72.8181 154.293 67.9384 159.702 61.5587Z" fill="white" style="fill:white;fill-opacity:1;"/>
<path d="M772.166 0.452881H373.593L529.707 237.553H772.166C779.597 237.547 786.723 234.595 791.98 229.344C797.238 224.094 800.198 216.973 800.212 209.544V28.474C800.2 21.0431 797.24 13.9204 791.983 8.66765C786.725 3.41488 779.599 0.460719 772.166 0.452881Z" fill="url(#paint0_linear_40934_50533)" style=""/>
<path d="M318.271 187.244H304.803L297.425 164.067H271.78L264.752 187.244H251.64L277.053 108.339H292.745L318.271 187.244ZM295.201 154.344L288.529 133.74C287.823 131.635 286.494 126.678 284.549 118.875H284.312C283.529 122.231 282.278 127.188 280.564 133.74L274.004 154.344H295.201ZM383.497 158.097C383.497 167.773 380.87 175.422 375.609 181.037C370.9 186.035 365.047 188.531 358.066 188.531C350.528 188.531 345.108 185.845 341.816 180.461V210.315H329.172V149.049C329.172 142.972 329.012 136.74 328.703 130.348H339.823L340.529 139.367H340.766C344.983 132.572 351.382 129.174 359.97 129.174C366.684 129.174 372.288 131.825 376.772 137.131C381.249 142.45 383.497 149.434 383.497 158.097ZM370.616 158.559C370.616 153.021 369.37 148.456 366.867 144.857C364.133 141.116 360.462 139.242 355.86 139.242C352.74 139.242 349.906 140.286 347.373 142.343C344.835 144.418 343.174 147.128 342.397 150.484C342.05 151.739 341.853 153.03 341.81 154.332V163.824C341.81 167.957 343.079 171.449 345.618 174.307C348.156 177.153 351.453 178.582 355.51 178.582C360.272 178.582 363.979 176.738 366.63 173.08C369.287 169.41 370.616 164.571 370.616 158.559ZM448.954 158.097C448.954 167.773 446.327 175.422 441.066 181.037C436.352 186.035 430.504 188.531 423.517 188.531C415.98 188.531 410.559 185.845 407.267 180.461V210.315H394.623V149.049C394.623 142.972 394.463 136.74 394.155 130.348H405.275L405.98 139.367H406.218C410.428 132.572 416.828 129.174 425.421 129.174C432.129 129.174 437.733 131.825 442.229 137.131C446.701 142.45 448.954 149.434 448.954 158.097ZM436.067 158.559C436.067 153.021 434.815 148.456 432.313 144.857C429.579 141.116 425.919 139.242 421.317 139.242C418.198 139.242 415.363 140.286 412.818 142.343C410.28 144.418 408.625 147.128 407.849 150.484C407.463 152.049 407.255 153.324 407.255 154.332V163.824C407.255 167.957 408.531 171.449 411.057 174.307C413.595 177.147 416.893 178.582 420.961 178.582C425.73 178.582 429.436 176.738 432.081 173.08C434.738 169.41 436.067 164.571 436.067 158.559ZM522.139 165.111C522.139 171.829 519.791 177.289 515.123 181.505C509.987 186.106 502.817 188.412 493.624 188.412C485.132 188.412 478.323 186.776 473.187 183.497L476.111 172.961C481.656 176.246 487.747 177.882 494.378 177.882C499.146 177.882 502.853 176.803 505.498 174.663C508.149 172.516 509.489 169.647 509.489 166.065C509.489 162.858 508.38 160.172 506.203 157.984C504.015 155.802 500.397 153.768 495.315 151.901C481.496 146.748 474.581 139.212 474.581 129.299C474.581 122.824 477.024 117.524 481.899 113.379C486.774 109.241 493.239 107.171 501.281 107.171C508.463 107.171 514.447 108.422 519.198 110.919L516.025 121.223C511.553 118.804 506.506 117.595 500.86 117.595C496.4 117.595 492.901 118.692 490.398 120.874C488.293 122.824 487.225 125.202 487.225 128.024C487.225 131.137 488.441 133.722 490.861 135.75C492.96 137.617 496.791 139.651 502.331 141.833C509.127 144.572 514.121 147.762 517.318 151.426C520.538 155.091 522.139 159.662 522.139 165.111ZM564.052 139.835H550.114V167.459C550.114 174.485 552.57 177.989 557.492 177.989C559.752 177.989 561.626 177.799 563.109 177.402L563.458 187.001C560.968 187.932 557.688 188.401 553.625 188.401C548.632 188.401 544.729 186.877 541.912 183.829C539.107 180.782 537.695 175.677 537.695 168.491V139.811H529.392V130.325H537.695V119.907L550.114 116.16V130.325H564.052V139.835ZM626.81 158.328C626.81 167.073 624.308 174.254 619.314 179.869C614.089 185.649 607.138 188.531 598.473 188.531C590.111 188.531 583.463 185.762 578.505 180.23C573.547 174.686 571.068 167.702 571.068 159.277C571.068 150.46 573.63 143.238 578.736 137.623C583.854 132.003 590.746 129.192 599.41 129.192C607.761 129.192 614.468 131.967 619.545 137.505C624.396 142.877 626.81 149.814 626.81 158.328ZM613.703 158.619C613.703 153.407 612.577 148.936 610.317 145.195C607.666 140.677 603.87 138.418 598.954 138.418C593.889 138.418 590.004 140.677 587.359 145.195C585.094 148.936 583.967 153.484 583.967 158.856C583.967 164.073 585.094 168.556 587.359 172.285C590.093 176.803 593.907 179.062 598.847 179.062C603.681 179.062 607.47 176.756 610.21 172.173C612.535 168.342 613.703 163.842 613.703 158.619ZM667.928 141.466C666.613 141.228 665.279 141.111 663.942 141.116C659.494 141.116 656.055 142.788 653.635 146.155C651.535 149.12 650.48 152.867 650.48 157.391V187.244H637.835V148.266C637.847 142.294 637.724 136.321 637.468 130.354H648.481L648.944 141.24H649.294C650.634 137.499 652.733 134.481 655.616 132.222C658.254 130.248 661.46 129.179 664.755 129.174C665.923 129.174 666.979 129.257 667.916 129.406L667.928 141.466ZM724.477 156.105C724.509 158.026 724.354 159.946 724.015 161.838H686.082C686.224 167.459 688.063 171.763 691.585 174.728C694.782 177.372 698.916 178.7 703.993 178.7C709.609 178.7 714.733 177.811 719.341 176.015L721.322 184.784C715.937 187.132 709.579 188.3 702.243 188.3C693.418 188.3 686.491 185.703 681.45 180.521C676.421 175.333 673.9 168.36 673.9 159.626C673.9 151.053 676.243 143.908 680.934 138.21C685.845 132.127 692.481 129.085 700.831 129.085C709.034 129.085 715.243 132.127 719.46 138.21C722.799 143.031 724.477 149.007 724.477 156.105ZM712.42 152.826C712.509 149.073 711.679 145.841 709.965 143.108C707.776 139.586 704.408 137.831 699.894 137.831C695.761 137.831 692.392 139.544 689.83 142.983C687.725 145.717 686.473 149.001 686.088 152.814L712.42 152.826Z" fill="white" style="fill:white;fill-opacity:1;"/>
<path d="M268.133 80.443C264.616 80.443 261.573 80.271 259.041 79.9805V41.8325C262.583 41.2855 266.162 41.0159 269.746 41.0261C284.247 41.0261 290.924 48.1588 290.924 59.7859C290.924 73.1976 283.037 80.443 268.133 80.443ZM270.256 45.9176C268.299 45.9176 266.632 46.0362 265.25 46.3208V75.3202C265.998 75.4388 267.433 75.4922 269.449 75.4922C278.95 75.4922 284.359 70.0848 284.359 59.9578C284.359 50.9278 279.466 45.9176 270.256 45.9176ZM311.735 80.7335C303.563 80.7335 298.267 74.6324 298.267 66.3494C298.267 57.7166 303.676 51.5622 312.198 51.5622C320.252 51.5622 325.667 57.3727 325.667 65.8929C325.667 74.6324 320.086 80.7335 311.735 80.7335ZM311.973 56.1039C307.483 56.1039 304.607 60.3017 304.607 66.1716C304.607 71.9287 307.542 76.1266 311.913 76.1266C316.284 76.1266 319.22 71.6382 319.22 66.053C319.22 60.361 316.344 56.1039 311.973 56.1039ZM372.27 52.1373L363.522 80.0991H357.823L354.199 67.9562C353.298 64.986 352.548 61.9721 351.951 58.9262H351.833C351.376 61.9737 350.51 65.0272 349.591 67.9562L345.736 80.0991H339.977L331.746 52.1373H338.133L341.3 65.4304C342.047 68.5966 342.676 71.5849 343.198 74.4071H343.316C343.773 72.0533 344.52 69.1124 345.617 65.4897L349.591 52.1432H354.656L358.457 65.2051C359.377 68.3713 360.124 71.4781 360.705 74.4131H360.871C361.275 71.5374 361.909 68.4839 362.769 65.2051L366.167 52.1432L372.27 52.1373ZM404.474 80.0991H398.258V64.043C398.258 59.0981 396.361 56.6197 392.618 56.6197C388.935 56.6197 386.403 59.7859 386.403 63.4679V80.0991H380.188V60.1298C380.188 57.6573 380.128 55.007 379.956 52.1314H385.424L385.715 56.4478H385.887C387.559 53.4595 390.952 51.5622 394.753 51.5622C400.625 51.5622 404.48 56.0505 404.48 63.3552L404.474 80.0991ZM421.614 80.0991H415.392V39.3066H421.614V80.0991ZM444.275 80.7335C436.108 80.7335 430.806 74.6324 430.806 66.3494C430.806 57.7166 436.215 51.5622 444.731 51.5622C452.791 51.5622 458.2 57.3727 458.2 65.8929C458.206 74.6324 452.619 80.7335 444.275 80.7335ZM444.506 56.1039C440.017 56.1039 437.14 60.3017 437.14 66.1716C437.14 71.9287 440.082 76.1266 444.441 76.1266C448.818 76.1266 451.747 71.6382 451.747 66.053C451.753 60.361 448.883 56.1039 444.506 56.1039ZM482.706 80.0991L482.255 76.8796H482.089C480.191 79.4706 477.421 80.7335 473.911 80.7335C468.899 80.7335 465.341 77.2235 465.341 72.5039C465.341 65.6024 471.325 62.033 481.686 62.033V61.5172C481.686 57.8352 479.734 55.9912 475.88 55.9912C473.122 55.9912 470.702 56.6849 468.573 58.0664L467.31 53.9813C469.895 52.3685 473.122 51.5622 476.911 51.5622C484.218 51.5622 487.907 55.4161 487.907 63.1299V73.4288C487.907 76.2511 488.032 78.4389 488.31 80.105L482.706 80.0991ZM481.852 66.1716C474.948 66.1716 471.485 67.8436 471.485 71.8102C471.485 74.7451 473.27 76.1799 475.749 76.1799C478.91 76.1799 481.852 73.7668 481.852 70.488V66.1716ZM518.088 80.0991L517.798 75.6107H517.626C515.841 79.0022 512.84 80.7335 508.647 80.7335C501.903 80.7335 496.91 74.8044 496.91 66.4621C496.91 57.7166 502.087 51.5562 509.157 51.5562C512.899 51.5562 515.55 52.8191 517.045 55.3568H517.169V39.3066H523.39V72.5632C523.39 75.2669 523.456 77.7986 523.622 80.0991H518.088ZM517.169 63.6457C517.169 59.7325 514.577 56.3944 510.622 56.3944C506.013 56.3944 503.196 60.4796 503.196 66.2308C503.196 71.8695 506.12 75.7293 510.497 75.7293C514.405 75.7293 517.169 72.3319 517.169 68.3061V63.6457ZM562.836 80.7335C554.669 80.7335 549.373 74.6324 549.373 66.3494C549.373 57.7166 554.782 51.5622 563.298 51.5622C571.358 51.5622 576.767 57.3727 576.767 65.8929C576.773 74.6324 571.192 80.7335 562.836 80.7335ZM563.067 56.1039C558.583 56.1039 555.707 60.3017 555.707 66.1716C555.707 71.9287 558.643 76.1266 563.008 76.1266C567.384 76.1266 570.314 71.6382 570.314 66.053C570.326 60.361 567.45 56.1039 563.067 56.1039ZM610.192 80.0991H603.971V64.043C603.971 59.0981 602.073 56.6197 598.331 56.6197C594.648 56.6197 592.121 59.7859 592.121 63.4679V80.0991H585.9V60.1298C585.9 57.6573 585.841 55.007 585.669 52.1314H591.137L591.427 56.4478H591.599C593.266 53.4595 596.664 51.5562 600.46 51.5562C606.331 51.5562 610.192 56.0446 610.192 63.3493V80.0991ZM652.01 56.7976H645.172V70.3753C645.172 73.832 646.37 75.5574 648.789 75.5574C649.886 75.5574 650.806 75.4388 651.547 75.2669L651.719 79.9864C650.515 80.4489 648.902 80.6802 646.897 80.6802C641.999 80.6802 639.069 77.9765 639.069 70.8971V56.7976H634.989V52.1373H639.069V47.0145L645.172 45.1706V52.1314H652.01V56.7976ZM684.913 80.0991H678.704V64.1616C678.704 59.1574 676.812 56.6256 673.064 56.6256C669.843 56.6256 666.842 58.8135 666.842 63.2426V80.0991H660.633V39.3066H666.842V56.1039H666.967C668.924 53.0563 671.759 51.5562 675.377 51.5562C681.295 51.5562 684.913 56.1572 684.913 63.4679V80.0991ZM718.623 67.6123H699.971C700.09 72.9071 703.595 75.8953 708.784 75.8953C711.542 75.8953 714.08 75.4329 716.322 74.5731L717.289 78.8896C714.644 80.0398 711.53 80.6149 707.907 80.6149C699.159 80.6149 693.981 75.089 693.981 66.5214C693.981 57.9478 699.283 51.5029 707.207 51.5029C714.353 51.5029 718.837 56.7976 718.837 64.796C718.877 65.7399 718.805 66.6853 718.623 67.6123ZM712.924 63.1833C712.924 58.8669 710.747 55.8193 706.774 55.8193C703.203 55.8193 700.381 58.9262 699.977 63.1833H712.924Z" fill="white" style="fill:white;fill-opacity:1;"/>
</g>
<defs>
<linearGradient id="paint0_linear_40934_50533" x1="586.896" y1="238.183" x2="586.896" y2="-616.915" gradientUnits="userSpaceOnUse">
<stop stop-color="#1A1A1A" stop-opacity="0.1" style="stop-color:#1A1A1A;stop-color:color(display-p3 0.1020 0.1020 0.1020);stop-opacity:0.1;"/>
<stop offset="0.123" stop-color="#212121" stop-opacity="0.151" style="stop-color:#212121;stop-color:color(display-p3 0.1294 0.1294 0.1294);stop-opacity:0.151;"/>
<stop offset="0.308" stop-color="#353535" stop-opacity="0.227" style="stop-color:#353535;stop-color:color(display-p3 0.2078 0.2078 0.2078);stop-opacity:0.227;"/>
<stop offset="0.532" stop-color="#575757" stop-opacity="0.318" style="stop-color:#575757;stop-color:color(display-p3 0.3412 0.3412 0.3412);stop-opacity:0.318;"/>
<stop offset="0.783" stop-color="#858585" stop-opacity="0.421" style="stop-color:#858585;stop-color:color(display-p3 0.5216 0.5216 0.5216);stop-opacity:0.421;"/>
<stop offset="1" stop-color="#B3B3B3" stop-opacity="0.51" style="stop-color:#B3B3B3;stop-color:color(display-p3 0.7020 0.7020 0.7020);stop-opacity:0.51;"/>
</linearGradient>
<clipPath id="clip0_40934_50533">
<rect width="800" height="238" fill="white" style="fill:white;fill-opacity:1;"/>
</clipPath>
</defs>
</svg>
