<svg aria-label="Balanced Body logo" viewBox="0 0 150.22 25.81" xmlns="http://www.w3.org/2000/svg"><title>Balanced Body logo</title><path d="M23.56 8.23C20 5.49 15.35 5.38 12.85 5.57a12.09 12.09 0 012.33 2.49c1.59 2.11 3.28 5.49.07 7.6-2.49 1.64-6.09.92-5.95-3.09a36.68 36.68 0 013-12l.3-.57S5.58.31 2.39 6.81C-.43 12.54-2.43 23.2 6.49 25.5c5.54 1.42 13.88-2.24 17.37-6.6 2.44-3.05 3.46-7.79-.3-10.67z" fill="#c2cd23"></path><path d="M58 19.72c-2.07 0-3.52-1.29-3.52-3s1.47-2.94 3.64-2.94a6.8 6.8 0 012.69.59v-.61c0-1.87-.87-2.74-2.73-2.74a5 5 0 00-2.32.54.91.91 0 01-.36.08.58.58 0 01-.62-.57.74.74 0 01.45-.63 6.27 6.27 0 013-.67c2.6 0 4 1.41 4 4v5.17a.7.7 0 11-1.4 0v-.45A3.77 3.77 0 0158 19.72zm.28-4.79c-1.5 0-2.43.75-2.43 1.81s.91 1.85 2.36 1.85a2.47 2.47 0 002.6-2.32v-.78a6 6 0 00-2.58-.56zM44.68 19.72c-2.07 0-3.52-1.29-3.52-3s1.46-2.94 3.64-2.94a6.89 6.89 0 012.69.59v-.61c0-1.87-.87-2.74-2.73-2.74a5 5 0 00-2.33.54.92.92 0 01-.37.08.57.57 0 01-.61-.57.73.73 0 01.44-.63 6.29 6.29 0 013-.67c2.59 0 4 1.41 4 4v5.17a.7.7 0 11-1.4 0v-.45a3.79 3.79 0 01-2.81 1.24zm.32-4.79c-1.49 0-2.43.75-2.43 1.81s.91 1.85 2.37 1.85a2.47 2.47 0 002.6-2.32v-.78a6.09 6.09 0 00-2.54-.56zM139 23.62a.63.63 0 01-.64-.62.73.73 0 01.42-.67 5.85 5.85 0 002.54-2.92L138 10.89a.88.88 0 01-.09-.37.61.61 0 01.68-.63.64.64 0 01.64.5l2.85 7.4 2.67-7.44a.59.59 0 01.63-.46.6.6 0 01.66.63.8.8 0 01-.07.31c0 .05-1.55 4.27-2.74 7.6-1 2.8-2.5 4.44-3.87 5.09a.71.71 0 01-.37.1zM35.91 19.72a3.83 3.83 0 01-3.2-1.85v1.06a.7.7 0 11-1.4 0V6.55a.7.7 0 111.4 0v5.07a3.79 3.79 0 013.2-1.82c2.36 0 4.08 2.08 4.08 5s-1.72 5-4.08 5zM35.76 11c-1.74 0-3 1.6-3 3.72s1.31 3.73 3 3.73 2.83-1.47 2.83-3.73S37.48 11 35.76 11zM112.13 19.72a3.82 3.82 0 01-3.19-1.85v1.06a.7.7 0 01-.7.71.71.71 0 01-.71-.71V6.55a.71.71 0 01.71-.7.7.7 0 01.7.7v5.07a3.79 3.79 0 013.19-1.82c2.37 0 4.09 2.08 4.09 5s-1.72 5-4.09 5zM112 11c-1.74 0-3 1.6-3 3.72s1.31 3.73 3 3.73 2.82-1.47 2.82-3.73S113.7 11 112 11zM96.93 19.72c-2.37 0-4.09-2.09-4.09-5s1.72-5 4.09-5a3.82 3.82 0 013.2 1.82V6.55a.7.7 0 011.4 0v12.38a.7.7 0 11-1.4 0v-1.06a3.85 3.85 0 01-3.2 1.85zm.15-8.72c-1.72 0-2.83 1.46-2.83 3.72s1.11 3.73 2.83 3.73 3-1.61 3-3.73-1.27-3.72-3-3.72zM131.64 19.72c-2.37 0-4.09-2.09-4.09-5s1.72-5 4.09-5a3.79 3.79 0 013.19 1.82V6.55a.7.7 0 01.7-.7.71.71 0 01.71.7v12.38a.71.71 0 01-.71.71.7.7 0 01-.7-.71v-1.06a3.82 3.82 0 01-3.19 1.85zm.15-8.68c-1.72 0-2.83 1.46-2.83 3.72s1.11 3.73 2.83 3.73 3-1.61 3-3.73-1.31-3.72-3-3.72zM51.72 19.64a.71.71 0 01-.7-.71V6.55a.71.71 0 011.41 0v12.38a.71.71 0 01-.71.71zM71.65 19.64a.7.7 0 01-.7-.71v-4.85c0-2-.85-3-2.51-3s-2.79 1.36-2.79 3.31v4.52a.71.71 0 11-1.41 0v-8.32a.68.68 0 01.7-.7.69.69 0 01.71.7v1.06a3.47 3.47 0 013.06-1.85c2.25 0 3.64 1.63 3.64 4.26v4.87a.7.7 0 01-.7.71zM78.28 19.72c-2.53 0-4.36-2.09-4.36-5s1.83-5 4.36-5a4.05 4.05 0 013.4 1.8.88.88 0 01.14.46.64.64 0 01-.66.61.63.63 0 01-.54-.31A2.71 2.71 0 0078.3 11c-2 0-3 1.87-3 3.72s1 3.73 3 3.73a2.73 2.73 0 002.32-1.33.62.62 0 01.54-.32.64.64 0 01.66.62.77.77 0 01-.14.45 4 4 0 01-3.4 1.81zM87.55 19.72c-3.3 0-4.47-2.67-4.47-5 0-2.88 1.82-5 4.32-5s4 2 4 4.91a.57.57 0 01-.62.6h-6.3c.09 1.24.62 3.2 3 3.2A2.83 2.83 0 0090 17.18a.65.65 0 01.54-.31.6.6 0 01.64.61.77.77 0 01-.19.46 4 4 0 01-3.41 1.78zm-3-5.62h5.6C90 12.54 89.06 11 87.43 11c-1.78 0-2.74 1.59-2.91 3.09zM121.9 19.72c-2.83 0-4.36-2.56-4.36-5s1.53-5 4.36-5 4.37 2.56 4.37 5-1.53 5-4.37 5zm0-8.68c-1.94 0-3 1.87-3 3.72s1 3.73 3 3.73 3-1.88 3-3.73-1-3.72-3-3.72zM148.84 10.9a1.34 1.34 0 01-1.37-1.36 1.38 1.38 0 012.75 0 1.35 1.35 0 01-1.38 1.36zm0-2.48a1.07 1.07 0 00-1.12 1.12 1.13 1.13 0 102.25 0 1.08 1.08 0 00-1.13-1.12zm.31 1.23l.26.42v.06a.12.12 0 01-.23 0l-.28-.47h-.25v.45a.12.12 0 01-.12.11.13.13 0 01-.12-.11V8.92a.13.13 0 01.12-.12h.35c.33 0 .51.18.51.44a.41.41 0 01-.24.41zm-.49-.65v.45h.26a.22.22 0 00.23-.23.21.21 0 00-.23-.22z" fill="#757575"></path></svg>