<svg width="151" height="26" viewBox="0 0 151 26" fill="none" xmlns="http://www.w3.org/2000/svg">
<g clip-path="url(#clip0_40939_50557)">
<path d="M23.5597 8.23C19.9997 5.49 15.3497 5.38 12.8497 5.57C13.7401 6.28575 14.5245 7.12408 15.1797 8.06C16.7697 10.17 18.4597 13.55 15.2497 15.66C12.7597 17.3 9.15965 16.58 9.29965 12.57C9.61314 8.42901 10.6276 4.37133 12.2997 0.57L12.5997 0C12.5997 0 5.57965 0.31 2.38965 6.81C-0.430347 12.54 -2.43035 23.2 6.48965 25.5C12.0297 26.92 20.3697 23.26 23.8597 18.9C26.2997 15.85 27.3197 11.11 23.5597 8.23Z" fill="#C2CD23" style="fill:#C2CD23;fill:color(display-p3 0.7608 0.8039 0.1373);fill-opacity:1;"/>
<path d="M57.9996 19.72C55.9296 19.72 54.4796 18.43 54.4796 16.72C54.4796 15.01 55.9496 13.78 58.1196 13.78C59.0471 13.7911 59.9625 13.9919 60.8096 14.37V13.76C60.8096 11.89 59.9396 11.02 58.0796 11.02C57.274 11.0104 56.4781 11.1957 55.7596 11.56C55.6463 11.6109 55.5238 11.6382 55.3996 11.64C55.3209 11.6454 55.242 11.6348 55.1677 11.6087C55.0933 11.5826 55.025 11.5417 54.967 11.4883C54.9089 11.435 54.8624 11.3704 54.8302 11.2985C54.798 11.2265 54.7807 11.1488 54.7796 11.07C54.7891 10.9337 54.8362 10.8026 54.9156 10.6914C54.995 10.5802 55.1037 10.4932 55.2296 10.44C56.1585 9.97118 57.1895 9.74092 58.2296 9.76998C60.8296 9.76998 62.2296 11.18 62.2296 13.77V18.94C62.2296 19.1256 62.1558 19.3037 62.0245 19.435C61.8933 19.5662 61.7152 19.64 61.5296 19.64C61.3439 19.64 61.1659 19.5662 61.0346 19.435C60.9033 19.3037 60.8296 19.1256 60.8296 18.94V18.49C60.4713 18.883 60.0339 19.1958 59.5462 19.4078C59.0584 19.6198 58.5314 19.7262 57.9996 19.72ZM58.2796 14.93C56.7796 14.93 55.8496 15.68 55.8496 16.74C55.8496 17.8 56.7596 18.59 58.2096 18.59C58.8616 18.6255 59.5012 18.4014 59.9884 17.9666C60.4756 17.5318 60.7709 16.9218 60.8096 16.27V15.49C60.0018 15.1141 59.1205 14.9228 58.2296 14.93H58.2796ZM44.6796 19.72C42.6096 19.72 41.1596 18.43 41.1596 16.72C41.1596 15.01 42.6196 13.78 44.7996 13.78C45.7268 13.7936 46.6417 13.9943 47.4896 14.37V13.76C47.4896 11.89 46.6196 11.02 44.7596 11.02C43.9507 11.0088 43.1511 11.1941 42.4296 11.56C42.3131 11.612 42.1871 11.6392 42.0596 11.64C41.9814 11.6455 41.903 11.6348 41.8291 11.6086C41.7553 11.5825 41.6876 11.5413 41.6304 11.4879C41.5732 11.4344 41.5276 11.3697 41.4965 11.2978C41.4653 11.2259 41.4494 11.1483 41.4496 11.07C41.4571 10.9344 41.5022 10.8037 41.58 10.6924C41.6577 10.5811 41.7649 10.4937 41.8896 10.44C42.8188 9.97197 43.8495 9.74176 44.8896 9.76998C47.4796 9.76998 48.8896 11.18 48.8896 13.77V18.94C48.8896 19.1256 48.8158 19.3037 48.6845 19.435C48.5533 19.5662 48.3752 19.64 48.1896 19.64C48.0039 19.64 47.8259 19.5662 47.6946 19.435C47.5633 19.3037 47.4896 19.1256 47.4896 18.94V18.49C47.1337 18.8813 46.6998 19.1938 46.2158 19.4074C45.7319 19.6209 45.2086 19.7308 44.6796 19.73V19.72ZM44.9996 14.93C43.5096 14.93 42.5696 15.68 42.5696 16.74C42.5696 17.8 43.4796 18.59 44.9396 18.59C45.5916 18.6255 46.2312 18.4014 46.7184 17.9666C47.2056 17.5318 47.5009 16.9218 47.5396 16.27V15.49C46.7431 15.1226 45.8767 14.9316 44.9996 14.93ZM139 23.62C138.917 23.6213 138.835 23.6063 138.758 23.5759C138.681 23.5454 138.611 23.5001 138.551 23.4425C138.492 23.385 138.444 23.3163 138.411 23.2403C138.378 23.1644 138.361 23.0827 138.36 23C138.358 22.8598 138.397 22.722 138.471 22.6032C138.545 22.4844 138.653 22.3895 138.78 22.33C139.933 21.673 140.829 20.6433 141.32 19.41L138 10.89C137.943 10.7747 137.912 10.6484 137.91 10.52C137.906 10.432 137.922 10.3442 137.955 10.2628C137.989 10.1814 138.04 10.1083 138.105 10.0484C138.169 9.98855 138.246 9.94339 138.33 9.91604C138.413 9.88869 138.502 9.8798 138.59 9.88998C138.738 9.8864 138.882 9.93428 138.999 10.0255C139.116 10.1166 139.197 10.2455 139.23 10.39L142.08 17.79L144.75 10.35C144.781 10.2098 144.862 10.0857 144.978 10.001C145.094 9.91632 145.237 9.87685 145.38 9.88998C145.466 9.88117 145.553 9.89117 145.635 9.91929C145.717 9.94741 145.792 9.99298 145.855 10.0529C145.917 10.1127 145.967 10.1855 145.998 10.2661C146.03 10.3468 146.044 10.4334 146.04 10.52C146.037 10.627 146.013 10.7324 145.97 10.83C145.97 10.88 144.42 15.1 143.23 18.43C142.23 21.23 140.73 22.87 139.36 23.52C139.248 23.5866 139.12 23.6212 138.99 23.62H139ZM35.9096 19.72C35.2634 19.7066 34.6311 19.53 34.0716 19.2066C33.5121 18.8831 33.0435 18.4233 32.7096 17.87V18.93C32.7096 19.1156 32.6358 19.2937 32.5045 19.425C32.3733 19.5562 32.1952 19.63 32.0096 19.63C31.8239 19.63 31.6459 19.5562 31.5146 19.425C31.3833 19.2937 31.3096 19.1156 31.3096 18.93V6.54998C31.3096 6.36432 31.3833 6.18628 31.5146 6.055C31.6459 5.92373 31.8239 5.84998 32.0096 5.84998C32.1952 5.84998 32.3733 5.92373 32.5045 6.055C32.6358 6.18628 32.7096 6.36432 32.7096 6.54998V11.62C33.0443 11.0697 33.5138 10.6138 34.0738 10.2954C34.6337 9.97691 35.2655 9.80642 35.9096 9.79998C38.2696 9.79998 39.9896 11.88 39.9896 14.8C39.9896 17.72 38.2696 19.8 35.9096 19.8V19.72ZM35.7596 11C34.0196 11 32.7596 12.6 32.7596 14.72C32.7596 16.84 34.0696 18.45 35.7596 18.45C37.4496 18.45 38.5896 16.98 38.5896 14.72C38.5896 12.46 37.4796 11 35.7596 11ZM112.13 19.72C111.485 19.7059 110.854 19.5289 110.297 19.2054C109.739 18.8819 109.272 18.4225 108.94 17.87V18.93C108.941 19.0227 108.924 19.1148 108.889 19.2009C108.855 19.287 108.803 19.3654 108.738 19.4314C108.673 19.4975 108.595 19.5499 108.51 19.5858C108.424 19.6216 108.332 19.64 108.24 19.64C108.051 19.64 107.871 19.5652 107.738 19.432C107.604 19.2989 107.53 19.1183 107.53 18.93V6.54998C107.532 6.36341 107.608 6.18538 107.741 6.05438C107.874 5.92339 108.053 5.84996 108.24 5.84998C108.425 5.84998 108.603 5.92373 108.735 6.055C108.866 6.18628 108.94 6.36432 108.94 6.54998V11.62C109.273 11.0711 109.741 10.6161 110.299 10.2978C110.857 9.9794 111.487 9.80811 112.13 9.79998C114.5 9.79998 116.22 11.88 116.22 14.8C116.22 17.72 114.5 19.8 112.13 19.8V19.72ZM112 11C110.26 11 109 12.6 109 14.72C109 16.84 110.31 18.45 112 18.45C113.69 18.45 114.82 16.98 114.82 14.72C114.82 12.46 113.7 11 112 11ZM96.9296 19.72C94.5596 19.72 92.8396 17.63 92.8396 14.72C92.8396 11.81 94.5596 9.71998 96.9296 9.71998C97.5731 9.72922 98.2038 9.90089 98.7633 10.2191C99.3227 10.5372 99.7927 10.9916 100.13 11.54V6.54998C100.13 6.36432 100.203 6.18628 100.335 6.055C100.466 5.92373 100.644 5.84998 100.83 5.84998C101.015 5.84998 101.193 5.92373 101.325 6.055C101.456 6.18628 101.53 6.36432 101.53 6.54998V18.93C101.53 19.1156 101.456 19.2937 101.325 19.425C101.193 19.5562 101.015 19.63 100.83 19.63C100.644 19.63 100.466 19.5562 100.335 19.425C100.203 19.2937 100.13 19.1156 100.13 18.93V17.87C99.7942 18.422 99.3253 18.8808 98.7661 19.2041C98.2069 19.5274 97.5753 19.7048 96.9296 19.72ZM97.0796 11C95.3596 11 94.2496 12.46 94.2496 14.72C94.2496 16.98 95.3596 18.45 97.0796 18.45C98.7996 18.45 100.08 16.84 100.08 14.72C100.08 12.6 98.8096 11 97.0796 11ZM131.64 19.72C129.27 19.72 127.55 17.63 127.55 14.72C127.55 11.81 129.27 9.71998 131.64 9.71998C132.282 9.72811 132.912 9.8994 133.47 10.2178C134.028 10.5361 134.496 10.9911 134.83 11.54V6.54998C134.83 6.36432 134.903 6.18628 135.035 6.055C135.166 5.92373 135.344 5.84998 135.53 5.84998C135.716 5.84996 135.895 5.92339 136.028 6.05438C136.161 6.18538 136.237 6.36341 136.24 6.54998V18.93C136.24 19.0232 136.221 19.1155 136.186 19.2017C136.15 19.2878 136.098 19.3661 136.032 19.432C135.966 19.498 135.887 19.5502 135.801 19.5859C135.715 19.6216 135.623 19.64 135.53 19.64C135.437 19.64 135.345 19.6216 135.259 19.5858C135.174 19.5499 135.096 19.4975 135.031 19.4314C134.966 19.3654 134.915 19.287 134.88 19.2009C134.845 19.1148 134.828 19.0227 134.83 18.93V17.87C134.497 18.4225 134.03 18.8819 133.473 19.2054C132.915 19.5289 132.284 19.7059 131.64 19.72ZM131.79 11.04C130.07 11.04 128.96 12.5 128.96 14.76C128.96 17.02 130.07 18.49 131.79 18.49C133.51 18.49 134.79 16.88 134.79 14.76C134.79 12.64 133.48 11.04 131.79 11.04ZM51.7196 19.64C51.533 19.6373 51.355 19.5614 51.224 19.4285C51.093 19.2957 51.0196 19.1166 51.0196 18.93V6.54998C51.0402 6.37746 51.1233 6.21848 51.2532 6.10314C51.3831 5.98779 51.5508 5.92409 51.7246 5.92409C51.8983 5.92409 52.066 5.98779 52.1959 6.10314C52.3259 6.21848 52.409 6.37746 52.4296 6.54998V18.93C52.4296 19.0232 52.4112 19.1155 52.3755 19.2017C52.3398 19.2878 52.2875 19.3661 52.2216 19.432C52.1557 19.498 52.0774 19.5502 51.9913 19.5859C51.9051 19.6216 51.8128 19.64 51.7196 19.64ZM71.6496 19.64C71.5568 19.64 71.465 19.6216 71.3794 19.5858C71.2938 19.5499 71.2162 19.4975 71.151 19.4314C71.0859 19.3654 71.0345 19.287 71 19.2009C70.9654 19.1148 70.9482 19.0227 70.9496 18.93V14.08C70.9496 12.08 70.0996 11.08 68.4396 11.08C66.7796 11.08 65.6496 12.44 65.6496 14.39V18.91C65.6615 19.0096 65.6521 19.1106 65.6221 19.2064C65.5921 19.3021 65.5421 19.3904 65.4755 19.4655C65.4089 19.5405 65.3271 19.6006 65.2356 19.6417C65.1441 19.6828 65.0449 19.7041 64.9446 19.7041C64.8442 19.7041 64.745 19.6828 64.6535 19.6417C64.562 19.6006 64.4802 19.5405 64.4136 19.4655C64.347 19.3904 64.2971 19.3021 64.2671 19.2064C64.2371 19.1106 64.2277 19.0096 64.2396 18.91V10.59C64.2368 10.4973 64.253 10.405 64.2872 10.3189C64.3214 10.2327 64.3729 10.1544 64.4384 10.0888C64.504 10.0233 64.5823 9.97182 64.6685 9.93762C64.7546 9.90342 64.8469 9.88721 64.9396 9.88998C65.0327 9.88727 65.1254 9.90344 65.2121 9.93753C65.2988 9.97162 65.3777 10.0229 65.4441 10.0883C65.5104 10.1537 65.5628 10.2319 65.5982 10.3181C65.6335 10.4043 65.651 10.4968 65.6496 10.59V11.65C65.9437 11.0929 66.3839 10.6264 66.9229 10.3005C67.462 9.97456 68.0796 9.80154 68.7096 9.79998C70.9596 9.79998 72.3496 11.43 72.3496 14.06V18.93C72.3509 19.0227 72.3338 19.1148 72.2992 19.2009C72.2646 19.287 72.2133 19.3654 72.1481 19.4314C72.083 19.4975 72.0054 19.5499 71.9198 19.5858C71.8342 19.6216 71.7423 19.64 71.6496 19.64ZM78.2796 19.72C75.7496 19.72 73.9196 17.63 73.9196 14.72C73.9196 11.81 75.7496 9.71998 78.2796 9.71998C78.9511 9.7146 79.6134 9.87629 80.2069 10.1905C80.8004 10.5047 81.3065 10.9616 81.6796 11.52C81.768 11.6573 81.8165 11.8166 81.8196 11.98C81.8118 12.148 81.7382 12.3062 81.6147 12.4203C81.4911 12.5345 81.3277 12.5954 81.1596 12.59C81.0504 12.5895 80.9433 12.5607 80.8486 12.5064C80.7539 12.452 80.675 12.374 80.6196 12.28C80.3748 11.8859 80.0329 11.5612 79.6267 11.3371C79.2205 11.113 78.7635 10.9969 78.2996 11C76.2996 11 75.2996 12.87 75.2996 14.72C75.2996 16.57 76.2996 18.45 78.2996 18.45C78.7679 18.4459 79.2273 18.3214 79.6336 18.0885C80.0399 17.8556 80.3794 17.522 80.6196 17.12C80.673 17.0234 80.7512 16.9428 80.8461 16.8866C80.941 16.8303 81.0492 16.8004 81.1596 16.8C81.2436 16.7973 81.3274 16.8112 81.4061 16.841C81.4847 16.8707 81.5568 16.9156 81.6181 16.9732C81.6794 17.0308 81.7287 17.0999 81.7633 17.1765C81.7979 17.2532 81.817 17.3359 81.8196 17.42C81.8211 17.5809 81.7721 17.7383 81.6796 17.87C81.311 18.4335 80.8061 18.8948 80.2118 19.2112C79.6174 19.5276 78.9528 19.6888 78.2796 19.68V19.72ZM87.5496 19.72C84.2496 19.72 83.0796 17.05 83.0796 14.72C83.0796 11.84 84.8996 9.71998 87.3996 9.71998C89.8996 9.71998 91.3996 11.72 91.3996 14.63C91.4042 14.7117 91.3912 14.7935 91.3614 14.8697C91.3316 14.946 91.2857 15.0149 91.2269 15.0719C91.168 15.1288 91.0976 15.1724 91.0205 15.1997C90.9433 15.227 90.8611 15.2373 90.7796 15.23H84.4796C84.5696 16.47 85.0996 18.43 87.4796 18.43C87.9721 18.4594 88.4638 18.3595 88.9059 18.1403C89.3479 17.921 89.725 17.5899 89.9996 17.18C90.0565 17.0872 90.1357 17.0103 90.23 16.9561C90.3244 16.9019 90.4308 16.8723 90.5396 16.87C90.6225 16.8644 90.7057 16.8762 90.7839 16.9044C90.862 16.9327 90.9335 16.977 90.9936 17.0343C91.0538 17.0917 91.1014 17.1609 91.1334 17.2376C91.1654 17.3143 91.1811 17.3969 91.1796 17.48C91.1689 17.6501 91.1021 17.8119 90.9896 17.94C90.6166 18.4993 90.1086 18.9557 89.5126 19.2668C88.9166 19.5779 88.2518 19.7338 87.5796 19.72H87.5496ZM84.5496 14.1H90.1496C89.9996 12.54 89.0596 11 87.4296 11C85.6496 11 84.6896 12.59 84.5196 14.09L84.5496 14.1ZM121.9 19.72C119.07 19.72 117.54 17.16 117.54 14.72C117.54 12.28 119.07 9.71998 121.9 9.71998C124.73 9.71998 126.27 12.28 126.27 14.72C126.27 17.16 124.74 19.72 121.9 19.72ZM121.9 11.04C119.96 11.04 118.9 12.91 118.9 14.76C118.9 16.61 119.9 18.49 121.9 18.49C123.9 18.49 124.9 16.61 124.9 14.76C124.9 12.91 123.9 11.04 121.9 11.04ZM148.84 10.9C148.659 10.904 148.48 10.8717 148.313 10.8049C148.145 10.7381 147.993 10.6383 147.865 10.5113C147.737 10.3843 147.636 10.2329 147.568 10.066C147.5 9.89908 147.467 9.72018 147.47 9.53998C147.499 9.19555 147.657 8.8747 147.911 8.64089C148.166 8.40708 148.499 8.27734 148.845 8.27734C149.19 8.27734 149.523 8.40708 149.778 8.64089C150.033 8.8747 150.19 9.19555 150.22 9.53998C150.221 9.72065 150.186 9.89977 150.117 10.0667C150.048 10.2337 149.946 10.385 149.817 10.5118C149.689 10.6387 149.536 10.7384 149.368 10.805C149.2 10.8717 149.02 10.904 148.84 10.9ZM148.84 8.41998C148.691 8.41284 148.542 8.43692 148.403 8.49068C148.264 8.54444 148.137 8.62668 148.032 8.73214C147.926 8.83761 147.844 8.96395 147.79 9.10307C147.737 9.24218 147.712 9.391 147.72 9.53998C147.705 9.69663 147.723 9.85464 147.773 10.0039C147.823 10.1531 147.903 10.2904 148.009 10.4067C148.115 10.5231 148.244 10.6161 148.388 10.6797C148.532 10.7433 148.687 10.7762 148.845 10.7762C149.002 10.7762 149.158 10.7433 149.301 10.6797C149.445 10.6161 149.574 10.5231 149.68 10.4067C149.786 10.2904 149.867 10.1531 149.916 10.0039C149.966 9.85464 149.984 9.69663 149.97 9.53998C149.975 9.39051 149.95 9.24149 149.895 9.10236C149.84 8.96322 149.757 8.83701 149.651 8.73172C149.544 8.62643 149.417 8.54435 149.278 8.49068C149.138 8.43702 148.989 8.41294 148.84 8.41998ZM149.15 9.64998L149.41 10.07V10.13C149.402 10.1547 149.387 10.1765 149.366 10.1919C149.346 10.2074 149.32 10.2157 149.295 10.2157C149.269 10.2157 149.244 10.2074 149.223 10.1919C149.202 10.1765 149.187 10.1547 149.18 10.13L148.9 9.65998H148.65V10.11C148.647 10.14 148.633 10.1681 148.611 10.1884C148.589 10.2088 148.56 10.2201 148.53 10.22C148.5 10.218 148.472 10.2061 148.45 10.1861C148.428 10.1661 148.414 10.1392 148.41 10.11V8.91998C148.412 8.88892 148.425 8.85972 148.447 8.83769C148.469 8.81567 148.499 8.80229 148.53 8.79998H148.88C149.21 8.79998 149.39 8.97998 149.39 9.23998C149.397 9.32477 149.378 9.40981 149.335 9.48328C149.292 9.55675 149.227 9.61501 149.15 9.64998ZM148.66 8.99998V9.44998H148.92C148.95 9.4514 148.981 9.44643 149.009 9.43537C149.038 9.42432 149.064 9.40743 149.085 9.38578C149.107 9.36413 149.124 9.3382 149.135 9.30965C149.146 9.2811 149.151 9.25056 149.15 9.21998C149.151 9.1898 149.146 9.15964 149.135 9.13156C149.124 9.10347 149.107 9.07812 149.085 9.05724C149.063 9.03635 149.037 9.02043 149.009 9.01054C148.98 9.00066 148.95 8.99706 148.92 8.99998H148.66Z" fill="white" style="fill:white;fill-opacity:1;"/>
</g>
<defs>
<clipPath id="clip0_40939_50557">
<rect width="150.22" height="25.81" fill="white" style="fill:white;fill-opacity:1;"/>
</clipPath>
</defs>
</svg>
