<svg width="800" height="238" viewBox="0 0 800 238" fill="none" xmlns="http://www.w3.org/2000/svg">
<g clip-path="url(#clip0_40934_50544)">
<path d="M770.37 237.518H29.6296C13.037 237.518 0 224.481 0 207.889V30.1111C0 13.5185 13.037 0.481445 29.6296 0.481445H770.37C786.963 0.481445 800 13.5185 800 30.1111V207.889C800 224.481 786.963 237.518 770.37 237.518Z" fill="black" style="fill:black;fill-opacity:1;"/>
<path d="M770.37 5.22219C784 5.22219 795.259 16.4814 795.259 30.1111V207.889C795.259 221.518 784 232.778 770.37 232.778H29.6296C16 232.778 4.74074 221.518 4.74074 207.889V30.1111C4.74074 16.4814 16 5.22219 29.6296 5.22219H770.37ZM770.37 0.481445H29.6296C13.037 0.481445 0 14.1111 0 30.1111V207.889C0 224.481 13.037 237.518 29.6296 237.518H770.37C786.963 237.518 800 224.481 800 207.889V30.1111C800 14.1111 786.963 0.481445 770.37 0.481445Z" fill="#A6A6A6" style="fill:#A6A6A6;fill:color(display-p3 0.6511 0.6511 0.6511);fill-opacity:1;"/>
<path d="M280.889 60.9259C280.889 65.6667 279.704 69.8148 276.741 72.7778C273.185 76.3333 269.037 78.1111 263.704 78.1111C258.371 78.1111 254.222 76.3333 250.667 72.7778C247.111 69.2222 245.333 65.0741 245.333 59.7407C245.333 54.4074 247.111 50.2593 250.667 46.7037C254.222 43.1481 258.371 41.3704 263.704 41.3704C266.074 41.3704 268.445 41.963 270.815 43.1481C273.185 44.3333 274.963 45.5185 276.148 47.2963L273.185 50.2592C270.815 47.2963 267.852 46.1111 263.704 46.1111C260.148 46.1111 256.593 47.2963 254.222 50.2592C251.259 52.6296 250.074 56.1852 250.074 60.3333C250.074 64.4815 251.259 68.037 254.222 70.4074C257.185 72.7778 260.148 74.5555 263.704 74.5555C267.852 74.5555 270.815 73.3704 273.778 70.4074C275.556 68.6296 276.741 66.2593 276.741 63.2963H263.704V58.5555H280.889V60.9259ZM308.148 46.1111H292.148V57.3704H306.963V61.5185H292.148V72.7778H308.148V77.5185H287.408V41.963H308.148V46.1111ZM327.704 77.5185H322.963V46.1111H312.889V41.963H337.778V46.1111H327.704V77.5185ZM354.963 77.5185V41.963H359.704V77.5185H354.963ZM379.852 77.5185H375.111V46.1111H365.037V41.963H389.333V46.1111H379.259V77.5185H379.852ZM436.148 72.7778C432.593 76.3333 428.445 78.1111 423.111 78.1111C417.778 78.1111 413.63 76.3333 410.074 72.7778C406.519 69.2222 404.741 65.0741 404.741 59.7407C404.741 54.4074 406.519 50.2593 410.074 46.7037C413.63 43.1481 417.778 41.3704 423.111 41.3704C428.445 41.3704 432.593 43.1481 436.148 46.7037C439.704 50.2593 441.482 54.4074 441.482 59.7407C441.482 65.0741 439.704 69.2222 436.148 72.7778ZM413.63 69.8148C416 72.1852 419.556 73.963 423.111 73.963C426.667 73.963 430.222 72.7778 432.593 69.8148C434.963 67.4444 436.741 63.8889 436.741 59.7407C436.741 55.5926 435.556 52.037 432.593 49.6667C430.222 47.2963 426.667 45.5185 423.111 45.5185C419.556 45.5185 416 46.7037 413.63 49.6667C411.259 52.037 409.482 55.5926 409.482 59.7407C409.482 63.8889 410.667 67.4444 413.63 69.8148ZM448 77.5185V41.963H453.333L470.519 69.8148V41.963H475.259V77.5185H470.519L452.148 48.4815V77.5185H448Z" fill="white" stroke="white" style="fill:white;fill-opacity:1;stroke:white;stroke-opacity:1;" stroke-width="1.18519" stroke-miterlimit="10"/>
<path d="M403.556 129.667C389.333 129.667 378.074 140.333 378.074 155.148C378.074 169.37 389.333 180.63 403.556 180.63C417.778 180.63 429.037 169.963 429.037 155.148C429.037 139.741 417.778 129.667 403.556 129.667ZM403.556 169.963C395.852 169.963 389.333 163.445 389.333 154.556C389.333 145.667 395.852 139.148 403.556 139.148C411.259 139.148 417.778 145.074 417.778 154.556C417.778 163.445 411.259 169.963 403.556 169.963ZM348.445 129.667C334.222 129.667 322.963 140.333 322.963 155.148C322.963 169.37 334.222 180.63 348.445 180.63C362.667 180.63 373.926 169.963 373.926 155.148C373.926 139.741 362.667 129.667 348.445 129.667ZM348.445 169.963C340.741 169.963 334.222 163.445 334.222 154.556C334.222 145.667 340.741 139.148 348.445 139.148C356.148 139.148 362.667 145.074 362.667 154.556C362.667 163.445 356.148 169.963 348.445 169.963ZM282.667 137.37V148.037H308.148C307.556 153.963 305.185 158.704 302.222 161.667C298.667 165.222 292.741 169.37 282.667 169.37C266.667 169.37 254.815 156.926 254.815 140.926C254.815 124.926 267.259 112.482 282.667 112.482C290.963 112.482 297.482 116.037 302.222 120.185L309.926 112.482C303.408 106.556 295.111 101.815 283.259 101.815C261.926 101.815 243.556 119.593 243.556 140.926C243.556 162.259 261.926 180.037 283.259 180.037C295.111 180.037 303.408 176.482 310.519 168.778C317.63 161.667 320 151.593 320 143.889C320 141.519 320 139.148 319.408 137.37H282.667ZM551.704 145.667C549.333 139.741 543.408 129.667 530.37 129.667C517.333 129.667 506.667 139.741 506.667 155.148C506.667 169.37 517.333 180.63 531.556 180.63C542.815 180.63 549.926 173.519 552.296 169.37L544 163.445C541.037 167.593 537.482 170.556 531.556 170.556C525.63 170.556 522.074 168.185 519.111 162.852L552.889 148.63L551.704 145.667ZM517.333 153.963C517.333 144.482 525.037 139.148 530.37 139.148C534.519 139.148 538.667 141.519 539.852 144.482L517.333 153.963ZM489.482 178.259H500.741V104.185H489.482V178.259ZM471.704 135C468.741 132.037 464 129.074 458.074 129.074C445.63 129.074 433.778 140.333 433.778 154.556C433.778 168.778 445.037 179.445 458.074 179.445C464 179.445 468.741 176.482 471.111 173.519H471.704V177.074C471.704 186.556 466.37 191.889 458.074 191.889C451.556 191.889 446.815 187.148 445.63 183L436.148 187.148C439.111 193.667 446.222 201.963 458.667 201.963C471.704 201.963 482.37 194.259 482.37 175.889V130.852H471.704V135ZM458.667 169.963C450.963 169.963 444.445 163.445 444.445 154.556C444.445 145.667 450.963 139.148 458.667 139.148C466.37 139.148 472.296 145.667 472.296 154.556C472.296 163.445 466.37 169.963 458.667 169.963ZM603.259 104.185H576.593V178.259H587.852V150.408H603.259C615.704 150.408 627.556 141.519 627.556 127.296C627.556 113.074 615.704 104.185 603.259 104.185ZM603.852 139.741H587.852V114.259H603.852C612.148 114.259 616.889 121.37 616.889 126.704C616.296 133.222 611.556 139.741 603.852 139.741ZM672 129.074C663.704 129.074 655.408 132.63 652.445 140.333L662.519 144.482C664.889 140.333 668.445 139.148 672.593 139.148C678.519 139.148 683.852 142.704 684.445 148.63V149.222C682.667 148.037 677.926 146.259 673.185 146.259C662.519 146.259 651.852 152.185 651.852 162.852C651.852 172.926 660.741 179.445 670.222 179.445C677.926 179.445 681.482 175.889 684.445 172.333H685.037V178.259H695.704V149.815C694.519 136.778 684.445 129.074 672 129.074ZM670.815 169.963C667.259 169.963 661.926 168.185 661.926 163.445C661.926 157.519 668.445 155.741 673.778 155.741C678.519 155.741 680.889 156.926 683.852 158.111C682.667 165.222 676.741 169.963 670.815 169.963ZM733.037 130.852L720.593 162.852H720L706.963 130.852H695.111L714.667 175.889L703.407 200.778H714.667L744.889 130.852H733.037ZM633.482 178.259H644.741V104.185H633.482V178.259Z" fill="white" style="fill:white;fill-opacity:1;"/>
<path d="M61.6296 44.926C59.8519 46.7038 59.2593 49.6668 59.2593 53.2223V184.185C59.2593 187.741 60.4445 190.704 62.2222 192.482L62.8148 193.074L136.296 119.593V118.408L61.6296 44.926Z" fill="url(#paint0_linear_40934_50544)" style=""/>
<path d="M160 144.481L135.704 120.185V118.407L160 94.1111L160.593 94.7037L189.63 111.296C197.926 116.037 197.926 123.741 189.63 128.481L160 144.481Z" fill="url(#paint1_linear_40934_50544)" style=""/>
<path d="M160.593 143.889L135.704 119L61.6299 193.074C64.5928 196.037 68.741 196.037 74.0743 193.667L160.593 143.889Z" fill="url(#paint2_linear_40934_50544)" style=""/>
<path d="M160.593 94.1112L74.0743 44.926C68.741 41.9631 64.5928 42.5557 61.6299 45.5186L135.704 119L160.593 94.1112Z" fill="url(#paint3_linear_40934_50544)" style=""/>
<path opacity="0.2" d="M160 143.296L74.0743 191.889C69.3336 194.852 65.1854 194.259 62.2225 191.889L61.6299 192.482L62.2225 193.074C65.1854 195.445 69.3336 196.037 74.0743 193.074L160 143.296Z" fill="black" style="fill:black;fill-opacity:1;"/>
<path opacity="0.12" d="M61.6296 191.889C59.8519 190.111 59.2593 187.148 59.2593 183.593V184.185C59.2593 187.741 60.4445 190.704 62.2222 192.481V191.889H61.6296ZM189.63 126.704L160 143.296L160.593 143.889L189.63 127.296C193.778 124.926 195.556 121.963 195.556 119C195.556 121.963 193.185 124.333 189.63 126.704Z" fill="black" style="fill:black;fill-opacity:1;"/>
<path opacity="0.25" d="M74.0741 45.5185L189.63 111.296C193.185 113.667 195.556 116.037 195.556 119C195.556 116.037 193.778 113.074 189.63 110.704L74.0741 44.9259C65.7778 40.1852 59.2593 43.7407 59.2593 53.2222V53.8148C59.2593 44.9259 65.7778 40.7778 74.0741 45.5185Z" fill="white" style="fill:white;fill-opacity:1;"/>
</g>
<defs>
<linearGradient id="paint0_linear_40934_50544" x1="129.185" y1="52.0964" x2="29.7304" y2="151.545" gradientUnits="userSpaceOnUse">
<stop stop-color="#00A0FF" style="stop-color:#00A0FF;stop-color:color(display-p3 0.0000 0.6275 1.0000);stop-opacity:1;"/>
<stop offset="0.007" stop-color="#00A1FF" style="stop-color:#00A1FF;stop-color:color(display-p3 0.0000 0.6314 1.0000);stop-opacity:1;"/>
<stop offset="0.26" stop-color="#00BEFF" style="stop-color:#00BEFF;stop-color:color(display-p3 0.0000 0.7451 1.0000);stop-opacity:1;"/>
<stop offset="0.512" stop-color="#00D2FF" style="stop-color:#00D2FF;stop-color:color(display-p3 0.0000 0.8235 1.0000);stop-opacity:1;"/>
<stop offset="0.76" stop-color="#00DFFF" style="stop-color:#00DFFF;stop-color:color(display-p3 0.0000 0.8745 1.0000);stop-opacity:1;"/>
<stop offset="1" stop-color="#00E3FF" style="stop-color:#00E3FF;stop-color:color(display-p3 0.0000 0.8902 1.0000);stop-opacity:1;"/>
</linearGradient>
<linearGradient id="paint1_linear_40934_50544" x1="200.498" y1="119.006" x2="57.1081" y2="119.006" gradientUnits="userSpaceOnUse">
<stop stop-color="#FFE000" style="stop-color:#FFE000;stop-color:color(display-p3 1.0000 0.8784 0.0000);stop-opacity:1;"/>
<stop offset="0.409" stop-color="#FFBD00" style="stop-color:#FFBD00;stop-color:color(display-p3 1.0000 0.7412 0.0000);stop-opacity:1;"/>
<stop offset="0.775" stop-color="#FFA500" style="stop-color:#FFA500;stop-color:color(display-p3 1.0000 0.6471 0.0000);stop-opacity:1;"/>
<stop offset="1" stop-color="#FF9C00" style="stop-color:#FF9C00;stop-color:color(display-p3 1.0000 0.6118 0.0000);stop-opacity:1;"/>
</linearGradient>
<linearGradient id="paint2_linear_40934_50544" x1="147.123" y1="132.606" x2="12.261" y2="267.468" gradientUnits="userSpaceOnUse">
<stop stop-color="#FF3A44" style="stop-color:#FF3A44;stop-color:color(display-p3 1.0000 0.2275 0.2667);stop-opacity:1;"/>
<stop offset="1" stop-color="#C31162" style="stop-color:#C31162;stop-color:color(display-p3 0.7647 0.0667 0.3843);stop-opacity:1;"/>
</linearGradient>
<linearGradient id="paint3_linear_40934_50544" x1="43.2417" y1="1.52455" x2="103.467" y2="61.7497" gradientUnits="userSpaceOnUse">
<stop stop-color="#32A071" style="stop-color:#32A071;stop-color:color(display-p3 0.1961 0.6275 0.4431);stop-opacity:1;"/>
<stop offset="0.069" stop-color="#2DA771" style="stop-color:#2DA771;stop-color:color(display-p3 0.1765 0.6549 0.4431);stop-opacity:1;"/>
<stop offset="0.476" stop-color="#15CF74" style="stop-color:#15CF74;stop-color:color(display-p3 0.0824 0.8118 0.4549);stop-opacity:1;"/>
<stop offset="0.801" stop-color="#06E775" style="stop-color:#06E775;stop-color:color(display-p3 0.0235 0.9059 0.4588);stop-opacity:1;"/>
<stop offset="1" stop-color="#00F076" style="stop-color:#00F076;stop-color:color(display-p3 0.0000 0.9412 0.4627);stop-opacity:1;"/>
</linearGradient>
<clipPath id="clip0_40934_50544">
<rect width="800" height="238" fill="white" style="fill:white;fill-opacity:1;"/>
</clipPath>
</defs>
</svg>
