<svg xmlns="http://www.w3.org/2000/svg" xmlns:xlink="http://www.w3.org/1999/xlink" xmlns:inkscape="http://www.inkscape.org/namespaces/inkscape" version="1.1" width="376.705" height="127.498" viewBox="0 0 376.705 127.498">
<defs>
<clipPath id="clip_0">
<path transform="matrix(1,0,0,-1,0,127.498)" d="M0 127.498H376.705V0H0Z"/>
</clipPath>
</defs>
<path transform="matrix(1,0,0,-1,0,17.606202)" d="M0 0V-2.688H35.96V-109.892H45.875V-2.688H81.75V0Z" fill="#5a6d53"/>
<path transform="matrix(1,0,0,-1,0,127.498)" d="M247.078 0H256.992V109.892H247.078Z" fill="#5a6d53"/>
<path transform="matrix(1,0,0,-1,287.0613,127.498)" d="M0 0H2.94L40.834 93.594 78.804 0H89.644L44.527 109.895Z" fill="#5a6d53"/>
<path transform="matrix(1,0,0,-1,0,127.498)" d="M304.786 125.015H358.974V127.498H304.786Z" fill="#5a6d53"/>
<g clip-path="url(#clip_0)">
<path transform="matrix(1,0,0,-1,152.9911,70.7962)" d="M0 0H-31.254V50.659H0C13.776 50.659 25.288 39.235 25.288 25.204 25.288 11.174 13.776 0 0 0M26.375-33.103 21.923-21.34C17.721-10.67 12.848-5.801 4.196-2.86 19.908-2.86 35.116 7.391 35.116 25.204 35.116 40.916 22.431 53.35 7.054 53.35H-41.172V-37.846H-31.254V-2.857H-12.099C1.677-2.857 6.47-8.652 10.332-19.325L15.709-32.935C20.412-44.865 30.157-56.545 53.684-56.545H64.017V-53.857H55.697C39.064-53.857 30.744-44.446 26.375-33.103" fill="#5a6d53"/>
<path transform="matrix(1,0,0,-1,0,127.498)" d="M91.664 0H145.852V2.482H91.664Z" fill="#5a6d53"/>
</g>
</svg>
